<svg xmlns="http://www.w3.org/2000/svg" viewBox="0 0 120 120" role="img" aria-hidden="true">
  <defs>
    <linearGradient id="budgetGrad" x1="0" y1="0" x2="1" y2="1">
      <stop offset="0%" stop-color="#16a34a" />
      <stop offset="100%" stop-color="#22c55e" />
    </linearGradient>
  </defs>
  <rect width="120" height="120" rx="24" fill="#0f172a" />
  <rect x="18" y="34" width="84" height="52" rx="12" fill="#15263b" />
  <path d="M30 42h60a4 4 0 0 1 4 4v28a4 4 0 0 1-4 4H30a4 4 0 0 1-4-4V46a4 4 0 0 1 4-4Z" fill="#1f2a3a" />
  <circle cx="38" cy="62" r="8" fill="#f8fafc" opacity="0.2" />
  <circle cx="52" cy="54" r="6" fill="#f8fafc" opacity="0.24" />
  <circle cx="66" cy="66" r="5" fill="#f8fafc" opacity="0.28" />
  <path d="M74 44l14 14-22 22" fill="none" stroke="url(#budgetGrad)" stroke-width="10" stroke-linecap="round" stroke-linejoin="round" />
  <path d="M74 58h14" fill="none" stroke="url(#budgetGrad)" stroke-width="10" stroke-linecap="round" />
  <circle cx="88" cy="52" r="4" fill="#22c55e" />
</svg>
